<?xml version="1.0" encoding="UTF-8"?>
<svg xmlns="http://www.w3.org/2000/svg" xmlns:xlink="http://www.w3.org/1999/xlink" width="40pt" height="30pt" viewBox="0 0 40 30" version="1.1">
<g id="surface1">
<path style=" stroke:none;fill-rule:nonzero;fill:rgb(0%,0%,0%);fill-opacity:1;" d="M 37.402344 13.738281 L 23.414062 7.683594 C 22.921875 7.46875 22.332031 7.46875 21.835938 7.683594 C 21.34375 7.894531 21.050781 8.28125 21.050781 8.707031 L 21.050781 10.78125 L 2.753906 10.78125 C 1.886719 10.78125 1.179688 11.3125 1.179688 11.960938 L 1.179688 17.5625 C 1.179688 18.210938 1.886719 18.746094 2.753906 18.746094 L 21.050781 18.746094 L 21.050781 20.816406 C 21.050781 21.246094 21.34375 21.632812 21.839844 21.84375 C 22.085938 21.949219 22.355469 22.003906 22.628906 22.003906 C 22.898438 22.003906 23.167969 21.949219 23.414062 21.84375 L 37.402344 15.789062 C 37.898438 15.570312 38.1875 15.191406 38.1875 14.761719 C 38.1875 14.335938 37.898438 13.953125 37.402344 13.738281 Z M 22.625 20.820312 L 22.625 18.15625 C 22.625 17.828125 22.273438 17.5625 21.835938 17.5625 L 2.753906 17.5625 L 2.753906 11.960938 L 21.835938 11.960938 C 22.273438 11.960938 22.625 11.699219 22.625 11.371094 L 22.628906 8.707031 L 36.617188 14.765625 Z M 22.625 20.820312 "/>
</g>
</svg>
